<svg width="122" height="89" viewBox="0 0 122 89" fill="none" xmlns="http://www.w3.org/2000/svg">
<path d="M117 8.47754C119.762 8.47777 122 10.7164 122 13.4775V84C122 86.7613 119.762 88.9998 117 89H13.7142C10.9528 89 8.71424 86.7614 8.71423 84V8.47754H117ZM42.7592 0C43.28 3.31011e-06 43.7803 0.203263 44.1537 0.566406L52.2855 8.47559H8.71423V2C8.71423 0.895431 9.60966 3.34095e-08 10.7142 0H42.7592Z" fill="#595959"/>
<path d="M5.625 18.1953H109.865C110.89 18.1955 111.749 18.9708 111.854 19.9902L118.446 83.793C118.568 84.9725 117.643 85.9989 116.457 85.999H13.1582C12.1446 85.9988 11.2918 85.24 11.1729 84.2334L3.63867 20.4297C3.49836 19.2405 4.42758 18.1954 5.625 18.1953Z" fill="white" stroke="#595959" stroke-width="6"/>
</svg>
