<svg width="235" height="236" viewBox="0 0 235 236" fill="none" xmlns="http://www.w3.org/2000/svg">
<circle cx="117.5" cy="118.5" r="114.5" fill="#D9D9D9" stroke="#595959" stroke-width="6"/>
<path d="M118 109C108.009 109 99.455 105.443 92.3398 98.3273C85.2245 91.212 81.6668 82.6585 81.6668 72.6668C81.6668 62.6752 85.2245 54.1217 92.3398 47.0064C99.455 39.8911 108.009 36.3335 118 36.3335C127.992 36.3335 136.545 39.8911 143.661 47.0064C150.776 54.1217 154.334 62.6752 154.334 72.6668C154.334 82.6585 150.776 91.212 143.661 98.3273C136.545 105.443 127.992 109 118 109ZM45.3335 181.667V156.234C45.3335 151.086 46.6581 146.355 49.3075 142.041C51.9568 137.726 55.4766 134.434 59.8668 132.163C69.2529 127.47 78.7904 123.95 88.4793 121.603C98.1682 119.257 108.009 118.084 118 118.084C127.992 118.084 137.832 119.257 147.521 121.603C157.21 123.95 166.747 127.47 176.134 132.163C180.524 134.434 184.044 137.726 186.693 142.041C189.342 146.355 190.667 151.086 190.667 156.234V181.667H45.3335ZM63.5002 163.5H172.5V156.234C172.5 154.568 172.084 153.054 171.251 151.692C170.419 150.329 169.321 149.27 167.959 148.513C159.784 144.425 151.533 141.36 143.206 139.316C134.88 137.272 126.478 136.25 118 136.25C109.522 136.25 101.12 137.272 92.7939 139.316C84.4675 141.36 76.2168 144.425 68.0418 148.513C66.6793 149.27 65.5818 150.329 64.7491 151.692C63.9165 153.054 63.5002 154.568 63.5002 156.234V163.5ZM118 90.8335C122.996 90.8335 127.273 89.0547 130.83 85.497C134.388 81.9394 136.167 77.6627 136.167 72.6668C136.167 67.671 134.388 63.3943 130.83 59.8366C127.273 56.279 122.996 54.5002 118 54.5002C113.004 54.5002 108.728 56.279 105.17 59.8366C101.612 63.3943 99.8335 67.671 99.8335 72.6668C99.8335 77.6627 101.612 81.9394 105.17 85.497C108.728 89.0547 113.004 90.8335 118 90.8335Z" fill="#595959"/>
</svg>
